<svg xmlns="http://www.w3.org/2000/svg" viewBox="0 0 960 520" role="img" aria-labelledby="title desc">
  <title id="title">Swimming and sinking in a min-heap</title>
  <desc id="desc">Arrays show upward swaps during insertion and downward swaps after removing the minimum.</desc>
  <defs>
    <marker id="arrow" viewBox="0 0 10 10" refX="9" refY="5" markerWidth="7" markerHeight="7" orient="auto-start-reverse">
      <path d="M 0 0 L 10 5 L 0 10 z" fill="#475569"/>
    </marker>
    <style>
      text { font-family: Arial, "Noto Sans TC", "PingFang TC", sans-serif; fill: #172033; }
      .section { font-size: 21px; font-weight: 700; }
      .label { font-size: 16px; fill: #475569; }
      .number { font-size: 19px; font-weight: 700; text-anchor: middle; }
      .note { font-size: 15px; fill: #334155; }
    </style>
  </defs>
  <rect width="960" height="520" fill="#f8fafc"/>
  <text x="52" y="52" font-size="27" font-weight="700">Min-heap: swim and sink each follow one path</text>
  <line x1="480" y1="82" x2="480" y2="474" stroke="#cbd5e1" stroke-width="2"/>

  <g transform="translate(48 98)">
    <text class="section" x="0" y="0">Insert 2: swim upward</text>
    <text class="label" x="0" y="36">Append the new value at the end</text>
    <g transform="translate(0 52)">
      <g fill="#ffffff" stroke="#94a3b8">
        <rect x="0" y="0" width="54" height="50"/><rect x="54" y="0" width="54" height="50"/>
        <rect x="108" y="0" width="54" height="50"/><rect x="162" y="0" width="54" height="50"/>
        <rect x="216" y="0" width="54" height="50"/><rect x="270" y="0" width="54" height="50"/>
      </g>
      <rect x="324" y="0" width="54" height="50" fill="#fde68a" stroke="#d97706" stroke-width="3"/>
      <g class="number">
        <text x="27" y="32">3</text><text x="81" y="32">7</text><text x="135" y="32">5</text>
        <text x="189" y="32">12</text><text x="243" y="32">9</text><text x="297" y="32">8</text><text x="351" y="32">2</text>
      </g>
      <g class="label" text-anchor="middle">
        <text x="27" y="71">0</text><text x="81" y="71">1</text><text x="135" y="71">2</text>
        <text x="189" y="71">3</text><text x="243" y="71">4</text><text x="297" y="71">5</text><text x="351" y="71">6</text>
      </g>
    </g>
    <path d="M 346 146 C 346 177, 174 167, 174 200" fill="none" stroke="#475569" stroke-width="2.5" marker-end="url(#arrow)"/>
    <text class="note" x="4" y="176">2 &lt; 5: swap; then 2 &lt; 3: swap again</text>
    <g transform="translate(0 216)">
      <rect x="0" y="0" width="54" height="50" fill="#bbf7d0" stroke="#15803d" stroke-width="3"/>
      <g fill="#ffffff" stroke="#94a3b8">
        <rect x="54" y="0" width="54" height="50"/><rect x="108" y="0" width="54" height="50"/>
        <rect x="162" y="0" width="54" height="50"/><rect x="216" y="0" width="54" height="50"/>
        <rect x="270" y="0" width="54" height="50"/><rect x="324" y="0" width="54" height="50"/>
      </g>
      <g class="number">
        <text x="27" y="32">2</text><text x="81" y="32">7</text><text x="135" y="32">3</text>
        <text x="189" y="32">12</text><text x="243" y="32">9</text><text x="297" y="32">8</text><text x="351" y="32">5</text>
      </g>
    </g>
    <rect x="0" y="302" width="386" height="66" fill="#ecfdf5" stroke="#86efac"/>
    <text x="18" y="329" font-size="16" font-weight="700" fill="#166534">Stop condition</text>
    <text class="note" x="18" y="353">Stop at the root or when parent ≤ value.</text>
  </g>

  <g transform="translate(522 98)">
    <text class="section" x="0" y="0">Remove min: sink downward</text>
    <text class="label" x="0" y="36">Move the last value, 8, to the root</text>
    <g transform="translate(0 52)">
      <rect x="0" y="0" width="62" height="50" fill="#fecaca" stroke="#dc2626" stroke-width="3"/>
      <g fill="#ffffff" stroke="#94a3b8">
        <rect x="62" y="0" width="62" height="50"/><rect x="124" y="0" width="62" height="50"/>
        <rect x="186" y="0" width="62" height="50"/><rect x="248" y="0" width="62" height="50"/>
      </g>
      <g class="number">
        <text x="31" y="32">8</text><text x="93" y="32">4</text><text x="155" y="32">5</text>
        <text x="217" y="32">9</text><text x="279" y="32">7</text>
      </g>
    </g>
    <path d="M 31 124 C 31 166, 168 158, 168 200" fill="none" stroke="#475569" stroke-width="2.5" marker-end="url(#arrow)"/>
    <text class="note" x="0" y="176">Swap with the smaller child each time: first 4, then 7</text>
    <g transform="translate(0 216)">
      <rect x="0" y="0" width="62" height="50" fill="#bbf7d0" stroke="#15803d" stroke-width="3"/>
      <rect x="62" y="0" width="62" height="50" fill="#dcfce7" stroke="#16a34a"/>
      <g fill="#ffffff" stroke="#94a3b8">
        <rect x="124" y="0" width="62" height="50"/><rect x="186" y="0" width="62" height="50"/><rect x="248" y="0" width="62" height="50"/>
      </g>
      <g class="number">
        <text x="31" y="32">4</text><text x="93" y="32">7</text><text x="155" y="32">5</text>
        <text x="217" y="32">9</text><text x="279" y="32">8</text>
      </g>
    </g>
    <rect x="0" y="302" width="386" height="66" fill="#eff6ff" stroke="#93c5fd"/>
    <text x="18" y="329" font-size="16" font-weight="700" fill="#1d4ed8">Why swap with the smaller child?</text>
    <text class="note" x="18" y="353">This restores the parent ≤ child invariant.</text>
  </g>
</svg>
