<svg xmlns="http://www.w3.org/2000/svg" viewBox="0 0 920 420" role="img" aria-labelledby="title desc">
  <title id="title">Sorting method comparison</title>
  <desc id="desc">Visual comparison of insertion sort, merge sort, quick sort, and heap sort.</desc>
  <rect width="920" height="420" rx="18" fill="#f8fafc"/>
  <text x="56" y="54" fill="#0f172a" font-family="Arial" font-size="24" font-weight="700">Sorting Mental Models</text>
  <g transform="translate(62 100)">
    <text x="0" y="0" fill="#334155" font-family="Arial" font-size="18" font-weight="700">Insertion sort</text>
    <rect x="0" y="36" width="38" height="110" fill="#dbeafe" stroke="#2563eb"/>
    <rect x="46" y="72" width="38" height="74" fill="#dbeafe" stroke="#2563eb"/>
    <rect x="92" y="20" width="38" height="126" fill="#fef3c7" stroke="#f59e0b"/>
    <rect x="138" y="94" width="38" height="52" fill="#e2e8f0" stroke="#94a3b8"/>
    <text x="0" y="184" fill="#475569" font-family="Arial" font-size="15">grow sorted prefix</text>
  </g>
  <g transform="translate(292 100)">
    <text x="0" y="0" fill="#334155" font-family="Arial" font-size="18" font-weight="700">Merge sort</text>
    <rect x="0" y="26" width="180" height="34" fill="#e0f2fe" stroke="#38bdf8"/>
    <rect x="0" y="86" width="82" height="34" fill="#dcfce7" stroke="#16a34a"/>
    <rect x="98" y="86" width="82" height="34" fill="#dcfce7" stroke="#16a34a"/>
    <line x1="90" y1="60" x2="41" y2="86" stroke="#64748b" stroke-width="3"/>
    <line x1="90" y1="60" x2="139" y2="86" stroke="#64748b" stroke-width="3"/>
    <text x="10" y="184" fill="#475569" font-family="Arial" font-size="15">split, sort, merge</text>
  </g>
  <g transform="translate(520 100)">
    <text x="0" y="0" fill="#334155" font-family="Arial" font-size="18" font-weight="700">Quick sort</text>
    <rect x="0" y="44" width="52" height="58" fill="#dcfce7" stroke="#16a34a"/>
    <rect x="60" y="44" width="52" height="58" fill="#fef3c7" stroke="#f59e0b"/>
    <rect x="120" y="44" width="52" height="58" fill="#fee2e2" stroke="#dc2626"/>
    <text x="14" y="78" font-family="Arial" font-size="15">&lt; p</text>
    <text x="75" y="78" font-family="Arial" font-size="15">p</text>
    <text x="132" y="78" font-family="Arial" font-size="15">&gt; p</text>
    <text x="6" y="184" fill="#475569" font-family="Arial" font-size="15">partition around pivot</text>
  </g>
  <g transform="translate(724 100)">
    <text x="0" y="0" fill="#334155" font-family="Arial" font-size="18" font-weight="700">Heap sort</text>
    <circle cx="88" cy="48" r="24" fill="#fef3c7" stroke="#f59e0b"/>
    <circle cx="42" cy="112" r="22" fill="#fff" stroke="#94a3b8"/>
    <circle cx="134" cy="112" r="22" fill="#fff" stroke="#94a3b8"/>
    <line x1="76" y1="68" x2="54" y2="94" stroke="#94a3b8" stroke-width="3"/>
    <line x1="100" y1="68" x2="122" y2="94" stroke="#94a3b8" stroke-width="3"/>
    <text x="80" y="54" font-family="Arial" font-size="15">max</text>
    <text x="0" y="184" fill="#475569" font-family="Arial" font-size="15">repeatedly remove root</text>
  </g>
  <text x="56" y="350" fill="#334155" font-family="Arial" font-size="18" font-weight="700">Tradeoff lens</text>
  <text x="174" y="350" fill="#475569" font-family="Arial" font-size="17">stability, worst-case time, extra space, and constant factors decide which sort is appropriate.</text>
</svg>
